<svg width="21" height="21" viewBox="0 0 21 21" fill="none" xmlns="http://www.w3.org/2000/svg">
  <path d="M1.83576 1.39954C1.38576 1.39954 1.01758 1.73704 1.01758 2.14954V18.6495C1.01758 19.062 1.38576 19.3995 1.83576 19.3995C2.28575 19.3995 2.65393 19.062 2.65393 18.6495V11.112C3.66847 10.527 5.93483 9.59704 9.2239 10.512C14.5093 11.982 18.7393 6.26704 18.9111 6.02704C19.0584 5.83204 19.0502 5.57704 18.9029 5.38204C18.7557 5.19454 18.4857 5.10454 18.2402 5.17204C18.1993 5.17954 13.9775 6.19954 10.1648 3.75454C7.48937 2.03704 4.32302 2.02954 2.65393 2.18704V2.14954C2.65393 1.73704 2.28575 1.39954 1.83576 1.39954V1.39954Z" fill="#D32B49"/>
  <path d="M3.04768 1.65438C2.83923 1.19603 2.35183 0.899536 1.83576 0.899536H1.33576V0.994457C0.871416 1.17643 0.517578 1.6051 0.517578 2.14954V18.6495C0.517578 19.3782 1.15146 19.8995 1.83576 19.8995C2.52006 19.8995 3.15393 19.3782 3.15393 18.6495V11.4087C4.18489 10.8772 6.21466 10.1939 9.0899 10.9937L9.08993 10.9938C11.9458 11.788 14.4853 10.6299 16.2807 9.31407C18.0617 8.00876 19.193 6.4911 19.3142 6.32291C19.6009 5.93835 19.5733 5.44005 19.3019 5.0807L19.302 5.08064L19.2962 5.07319C19.0228 4.72511 18.5479 4.57252 18.116 4.68767C17.7145 4.77476 13.8913 5.55012 10.4349 3.33377C7.84417 1.67064 4.84139 1.53937 3.04768 1.65438Z" stroke="white" stroke-opacity="0.6"/>
</svg>
