<?xml version="1.0"?>
<svg xmlns="http://www.w3.org/2000/svg" xmlns:xlink="http://www.w3.org/1999/xlink" version="1.1" xml:space="preserve">
  <defs>

    <symbol id="loader" width="100%" height="100%" viewBox="22 22 44 44">
      <circle cx="44" cy="44" r="20.2" fill="none" stroke="currentColor" stroke-width="4"></circle>
    </symbol>

    <symbol id="geo" width="100%" height="100%" viewBox="0 0 14 14">
      <path fill-rule="evenodd" clip-rule="evenodd" d="M7.39754 13.7381C8.75083 13.0348 13.0953 10.4446 13.0953 6.17617C13.0953 2.84404 10.3663 0.142822 7.00002 0.142822C3.63372 0.142822 0.904785 2.84404 0.904785 6.17617C0.904785 10.4446 5.24922 13.0348 6.60251 13.7381C6.85292 13.8682 7.14713 13.8682 7.39754 13.7381ZM6.99992 8.76276C8.44262 8.76276 9.61216 7.60492 9.61216 6.17665C9.61216 4.74839 8.44262 3.59055 6.99992 3.59055C5.55721 3.59055 4.38767 4.74839 4.38767 6.17665C4.38767 7.60492 5.55721 8.76276 6.99992 8.76276Z" fill="currentColor" />
    </symbol>

    <symbol id="wa" width="100%" height="100%" viewBox="0 0 18 18">
      <path fill-rule="evenodd" clip-rule="evenodd" d="M14.9387 3.05497C13.363 1.48497 11.2675 0.619978 9.03497 0.619019C4.43483 0.619019 0.690836 4.34487 0.688989 8.92445C0.688427 10.3883 1.07266 11.8172 1.80305 13.0769L0.619049 17.3809L5.04333 16.2259C6.26235 16.8876 7.63481 17.2364 9.0316 17.2369H9.03505C13.6347 17.2369 17.379 13.5106 17.381 8.93093C17.3818 6.7117 16.5144 4.62489 14.9387 3.05497ZM9.03505 15.8342H9.03224C7.78753 15.8337 6.56668 15.5009 5.50168 14.8719L5.24834 14.7223L2.6229 15.4077L3.32366 12.8602L3.15873 12.5988C2.46439 11.4998 2.09759 10.2294 2.09815 8.92485C2.09967 5.11852 5.21148 2.02184 9.03786 2.02184C10.8906 2.02248 12.6323 2.74147 13.942 4.04647C15.2517 5.3514 15.9724 7.08586 15.9717 8.93053C15.9702 12.7372 12.8584 15.8342 9.03505 15.8342ZM12.84 10.6636C12.6315 10.5598 11.6063 10.0577 11.4151 9.98843C11.224 9.91931 11.0849 9.88463 10.9459 10.0924C10.8069 10.3002 10.4072 10.7676 10.2855 10.9062C10.1639 11.0446 10.0422 11.062 9.83378 10.958C9.62517 10.8542 8.95331 10.635 8.15675 9.92794C7.53684 9.37765 7.11833 8.69806 6.99668 8.4902C6.87502 8.28242 6.98367 8.17014 7.08814 8.06665C7.18192 7.97363 7.29667 7.82419 7.40098 7.70304C7.50529 7.58189 7.53998 7.49526 7.60951 7.35677C7.67905 7.21828 7.64428 7.09705 7.59209 6.99324C7.53997 6.88927 7.1229 5.86772 6.94914 5.45217C6.77987 5.04756 6.60795 5.1023 6.47995 5.09591C6.35846 5.08991 6.21931 5.08856 6.08023 5.08856C5.94123 5.08856 5.71535 5.1405 5.52416 5.34828C5.33305 5.55606 4.79433 6.05816 4.79433 7.07971C4.79433 8.10125 5.54151 9.08804 5.64581 9.22661C5.75004 9.3651 7.11632 11.4613 9.20818 12.3604C9.70562 12.5742 10.0941 12.7019 10.397 12.7976C10.8966 12.9556 11.3512 12.9332 11.7104 12.8798C12.1111 12.8202 12.9442 12.3777 13.118 11.893C13.2918 11.4081 13.2918 10.9926 13.2396 10.906C13.1875 10.8195 13.0485 10.7676 12.84 10.6636Z" fill="currentColor" />
    </symbol>

    <symbol id="phone" width="100%" height="100%" viewBox="0 0 18 18">
      <path d="M2.29524 3.13326C2.29524 2.67039 2.67047 2.29517 3.13334 2.29517H4.93765C5.34734 2.29517 5.69699 2.59136 5.76434 2.99548L6.38396 6.71316C6.44444 7.07609 6.26116 7.43602 5.93207 7.60056L4.63458 8.24931C5.57015 10.5741 7.42579 12.4298 9.75063 13.3653L10.3994 12.0679C10.5639 11.7388 10.9238 11.5555 11.2868 11.616L15.0045 12.2356C15.4086 12.3029 15.7048 12.6526 15.7048 13.0623V14.8666C15.7048 15.3295 15.3295 15.7047 14.8667 15.7047H13.1905C7.17321 15.7047 2.29524 10.8267 2.29524 4.80945V3.13326Z" fill="currentColor" />
    </symbol>

    <symbol id="check" width="100%" height="100%" viewBox="0 0 46 41">
      <path d="M39.2887 0.695312L18.2113 28.484L5.75 16.0316L0 21.7816L19.1637 40.9453L46 6.44531L39.2887 0.695312Z" fill="currentColor" />
    </symbol>

    <symbol id="car" width="100%" height="100%" viewBox="0 0 34 34">
      <path d="M21.76 4.75996C21.6172 4.75988 21.4781 4.80474 21.3622 4.88817C21.2464 4.9716 21.1597 5.08937 21.1145 5.2248L19.9059 8.83996H0.68C0.30396 8.83996 0 9.1446 0 9.51996V16.32C0 16.6423 0.226355 16.9194 0.541875 16.9853L16.8619 20.3853C16.9081 20.3955 16.9551 20.4 17.0013 20.4C17.293 20.4 17.5584 20.2122 17.6481 19.9232L21.0481 9.72316C21.0499 9.71749 21.0505 9.71159 21.0521 9.70589L22.2501 6.11996H28.56C28.6501 6.12123 28.7396 6.10458 28.8232 6.07098C28.9068 6.03738 28.9829 5.98749 29.0471 5.92422C29.1113 5.86095 29.1622 5.78556 29.197 5.70243C29.2318 5.61929 29.2497 5.53007 29.2497 5.43996C29.2497 5.34984 29.2318 5.26062 29.197 5.17749C29.1622 5.09435 29.1113 5.01896 29.0471 4.95569C28.9829 4.89242 28.9068 4.84253 28.8232 4.80893C28.7396 4.77533 28.6501 4.75868 28.56 4.75996H21.76ZM23.12 9.51996C22.9397 9.51997 22.7667 9.59162 22.6392 9.71914C22.5117 9.84666 22.44 10.0196 22.44 10.2V14.28V17H29.24C29.616 17 29.92 17.3046 29.92 17.68C29.92 18.056 29.616 18.36 29.24 18.36H19.6058C19.6044 18.36 19.6045 18.3586 19.6031 18.3586L18.947 20.3256C18.6812 21.1837 17.8996 21.76 17.0013 21.76C16.8585 21.76 16.7155 21.7447 16.5843 21.7161L6.8 19.6788V21.1782C5.18871 22.0065 4.08 23.684 4.08 25.6142C4.08 28.3601 6.3199 30.6 9.06578 30.6C11.7355 30.6 13.9227 28.4811 14.0423 25.84H21.0906C21.2101 28.4811 23.3961 30.6 26.0658 30.6C28.7351 30.6 30.922 28.4818 31.0423 25.8413H33.32C33.696 25.8413 34 25.5373 34 25.1613V14.28C34 13.9046 33.696 13.6 33.32 13.6H29.0501L27.8455 9.9848C27.8003 9.84937 27.7136 9.7316 27.5978 9.64817C27.4819 9.56474 27.3428 9.51988 27.2 9.51996H23.12ZM3.4 10.88H16.32C16.696 10.88 17 11.1846 17 11.56C17 11.9353 16.696 12.24 16.32 12.24H3.4C3.02396 12.24 2.72 11.9353 2.72 11.56C2.72 11.1846 3.02396 10.88 3.4 10.88ZM23.8 10.88H26.7099L27.6157 13.6H23.8V10.88ZM7.48 14.28H15.64C16.016 14.28 16.32 14.5846 16.32 14.96C16.32 15.3353 16.016 15.64 15.64 15.64H7.48C7.10396 15.64 6.8 15.3353 6.8 14.96C6.8 14.5846 7.10396 14.28 7.48 14.28ZM9.06578 21.9871C11.0767 21.9871 12.6929 23.6033 12.6929 25.6142C12.6929 27.6251 11.0767 29.24 9.06578 29.24C7.0549 29.24 5.44 27.6251 5.44 25.6142C5.44 23.6033 7.0549 21.9871 9.06578 21.9871ZM26.0658 21.9871C28.0767 21.9871 29.6929 23.6033 29.6929 25.6142C29.6929 27.6251 28.0767 29.24 26.0658 29.24C24.0549 29.24 22.44 27.6251 22.44 25.6142C22.44 23.6033 24.0549 21.9871 26.0658 21.9871ZM9.06578 23.8C8.58557 23.8011 8.12542 23.9927 7.78627 24.3327C7.44712 24.6727 7.25666 25.1333 7.25666 25.6135C7.25666 26.0937 7.44712 26.5543 7.78627 26.8943C8.12542 27.2343 8.58557 27.4259 9.06578 27.4271C9.546 27.4259 10.0061 27.2343 10.3453 26.8943C10.6844 26.5543 10.8749 26.0937 10.8749 25.6135C10.8749 25.1333 10.6844 24.6727 10.3453 24.3327C10.0061 23.9927 9.546 23.8011 9.06578 23.8ZM26.0658 23.8C25.5856 23.8011 25.1254 23.9927 24.7863 24.3327C24.4471 24.6727 24.2567 25.1333 24.2567 25.6135C24.2567 26.0937 24.4471 26.5543 24.7863 26.8943C25.1254 27.2343 25.5856 27.4259 26.0658 27.4271C26.546 27.4259 27.0061 27.2343 27.3453 26.8943C27.6844 26.5543 27.8749 26.0937 27.8749 25.6135C27.8749 25.1333 27.6844 24.6727 27.3453 24.3327C27.0061 23.9927 26.546 23.8011 26.0658 23.8Z" fill="currentColor" />
    </symbol>

    <symbol id="train" width="100%" height="100%" viewBox="0 0 34 34">
      <path d="M29.0166 26.2203C28.0977 26.2203 27.3202 26.8212 27.0021 27.6341H23.9272C23.6445 26.8212 22.8669 26.2203 21.9127 26.2203C20.7464 26.2203 19.7921 27.1746 19.7921 28.3409C19.7921 29.5072 20.7464 30.4615 21.9127 30.4615C22.8316 30.4615 23.6091 29.8607 23.9272 29.0478H27.0021C27.2848 29.8607 28.0624 30.4615 29.0166 30.4615C30.183 30.4615 31.1372 29.5072 31.1372 28.3409C31.1372 27.1746 30.183 26.2203 29.0166 26.2203Z" fill="currentColor" />
      <path d="M12.0873 26.2203C11.1684 26.2203 10.3909 26.8212 10.0728 27.6341H6.99792C6.71518 26.8212 5.93763 26.2203 4.98337 26.2203C3.81705 26.2203 2.86279 27.1746 2.86279 28.3409C2.86279 29.5072 3.81705 30.4615 4.98337 30.4615C5.90229 30.4615 6.67983 29.8607 6.99792 29.0478H10.0728C10.3555 29.8607 11.1331 30.4615 12.0873 30.4615C13.2536 30.4615 14.2079 29.5072 14.2079 28.3409C14.2079 27.1746 13.2536 26.2203 12.0873 26.2203Z" fill="currentColor" />
      <path d="M33.6466 21.9792H33.2931C33.1164 21.9792 32.9397 22.156 32.9397 22.3327V23.0395H31.1726V21.9792H2.89813V23.0395H1.13098V22.3327C1.13098 22.156 0.954262 21.9792 0.777547 21.9792H0.424117C0.247402 21.9792 0.0706863 22.156 0.0706863 22.3327V25.1601C0.0706863 25.3368 0.247402 25.5136 0.424117 25.5136H0.777547C0.954262 25.5136 1.13098 25.3368 1.13098 25.1601V24.4533H2.89813V25.5136H31.1726V24.4533H32.9397V25.1601C32.9397 25.3368 33.1164 25.5136 33.2931 25.5136H33.6466C33.8233 25.5136 34 25.3368 34 25.1601V22.3327C34 22.156 33.8233 21.9792 33.6466 21.9792Z" fill="currentColor" />
      <path d="M0 11.0228V15.9709L5.0894 20.9189H28.8399L33.9293 15.9709V11.0228H0Z" fill="currentColor" />
      <path d="M31.1726 9.96258L18.6611 3L14.2079 5.72141L11.3805 4.30769L2.89813 9.96258H31.1726Z" fill="currentColor" />
    </symbol>

    <symbol id="success" width="100%" height="100%" viewBox="0 0 68 68">
      <path fill-rule="evenodd" clip-rule="evenodd" d="M34 68C52.7777 68 68 52.7777 68 34C68 15.2223 52.7777 0 34 0C15.2223 0 0 15.2223 0 34C0 52.7777 15.2223 68 34 68ZM49.7552 28.5052C51.4149 26.8455 51.4149 24.1545 49.7552 22.4948C48.0955 20.8351 45.4045 20.8351 43.7448 22.4948L29.75 36.4896L24.2552 30.9948C22.5955 29.3351 19.9045 29.3351 18.2448 30.9948C16.5851 32.6545 16.5851 35.3455 18.2448 37.0052L26.7448 45.5052C28.4045 47.1649 31.0955 47.1649 32.7552 45.5052L49.7552 28.5052Z" fill="currentColor" />
    </symbol>

  </defs>
</svg>