<?xml version="1.0"?>
<svg xmlns="http://www.w3.org/2000/svg" xmlns:xlink="http://www.w3.org/1999/xlink" version="1.1" xml:space="preserve">
  <defs>

    <symbol id="loader" width="100%" height="100%" viewBox="22 22 44 44">
      <circle cx="44" cy="44" r="20.2" fill="none" stroke="currentColor" stroke-width="4"></circle>
    </symbol>

    <symbol id="burger" width="100%" height="100%" viewBox="0 0 48 48">
      <path d="M41,14H7a2,2,0,0,1,0-4H41A2,2,0,0,1,41,14Z" fill="currentColor"/>
      <path d="M41,26H7a2,2,0,0,1,0-4H41A2,2,0,0,1,41,26Z" fill="currentColor"/>
      <path d="M41,38H7a2,2,0,0,1,0-4H41A2,2,0,0,1,41,38Z" fill="currentColor"/>
    </symbol>

    <symbol id="close" width="100%" height="100%" viewBox="0 0 16 16">
      <path d="M1 15L15 1M1 1L15 15" stroke="currentColor" stroke-width="2" stroke-linecap="round" stroke-linejoin="round"/>
    </symbol>

    <symbol id="success" width="100%" height="100%" viewBox="0 0 68 68">
      <path fill-rule="evenodd" clip-rule="evenodd" d="M34 68C52.7777 68 68 52.7777 68 34C68 15.2223 52.7777 0 34 0C15.2223 0 0 15.2223 0 34C0 52.7777 15.2223 68 34 68ZM49.7552 28.5052C51.4149 26.8455 51.4149 24.1545 49.7552 22.4948C48.0955 20.8351 45.4045 20.8351 43.7448 22.4948L29.75 36.4896L24.2552 30.9948C22.5955 29.3351 19.9045 29.3351 18.2448 30.9948C16.5851 32.6545 16.5851 35.3455 18.2448 37.0052L26.7448 45.5052C28.4045 47.1649 31.0955 47.1649 32.7552 45.5052L49.7552 28.5052Z" fill="currentColor"/>
    </symbol>

    <symbol id="basket" width="100%" height="100%" viewBox="0 0 17 18">
      <path d="M1.0625 0C0.475697 0 0 0.474052 0 1.05882C0 1.6436 0.475697 2.11765 1.0625 2.11765H2.35792L2.68258 3.41179C2.68599 3.42675 2.68972 3.44159 2.69375 3.45631L4.13581 9.20458L3.18745 10.1497C1.84878 11.4837 2.79687 13.7647 4.69005 13.7647H13.8124C14.3993 13.7647 14.8749 13.2907 14.8749 12.7059C14.8749 12.1211 14.3993 11.6471 13.8124 11.6471L4.69005 11.6471L5.75255 10.5882H12.75C13.1524 10.5882 13.5203 10.3616 13.7003 10.0029L16.8878 3.64999C17.0525 3.32177 17.0349 2.93197 16.8413 2.61981C16.6477 2.30766 16.3057 2.11765 15.9375 2.11765H4.54832L4.21828 0.802021C4.10003 0.330668 3.67505 0 3.1875 0H1.0625Z" fill="currentColor"/>
      <path d="M14.875 16.4118C14.875 17.2889 14.1615 18 13.2812 18C12.401 18 11.6875 17.2889 11.6875 16.4118C11.6875 15.5346 12.401 14.8235 13.2812 14.8235C14.1615 14.8235 14.875 15.5346 14.875 16.4118Z" fill="currentColor"/>
      <path d="M4.78125 18C5.66145 18 6.375 17.2889 6.375 16.4118C6.375 15.5346 5.66145 14.8235 4.78125 14.8235C3.90105 14.8235 3.1875 15.5346 3.1875 16.4118C3.1875 17.2889 3.90105 18 4.78125 18Z" fill="currentColor"/>
    </symbol>

    <symbol id="search" width="100%" height="100%" viewBox="0 0 24 24">
      <circle cx="11" cy="11" r="7" fill="var(--color-none)" stroke="currentColor" stroke-width="2"/>
      <path d="M19.8 19.7998L16.8 16.7998" fill="var(--color-none)" stroke="currentColor" stroke-width="2" stroke-linecap="round"/>
    </symbol>

    <symbol id="like" width="100%" height="100%" viewBox="0 0 28 25">
      <path d="M3.57582 13.9465L13.3058 23.3305C13.6341 23.6471 13.7982 23.8053 14 23.8053C14.2018 23.8053 14.3659 23.6471 14.6942 23.3305L24.4242 13.9465C27.0355 11.428 27.3545 7.35591 25.1672 4.46152L24.6491 3.77602C21.9853 0.25102 16.5265 0.831796 14.664 4.83838C14.4014 5.40311 13.5986 5.40311 13.336 4.83838C11.4735 0.831796 6.01473 0.251025 3.35086 3.77602L2.83282 4.46152C0.645496 7.35592 0.964483 11.428 3.57582 13.9465Z" stroke-width="2"/>
    </symbol>

    <symbol id="calendar" width="100%" height="100%" viewBox="0 0 24 24">
      <path d="M2 9C2 7.11438 2 6.17157 2.58579 5.58579C3.17157 5 4.11438 5 6 5H18C19.8856 5 20.8284 5 21.4142 5.58579C22 6.17157 22 7.11438 22 9C22 9.4714 22 9.70711 21.8536 9.85355C21.7071 10 21.4714 10 21 10H3C2.5286 10 2.29289 10 2.14645 9.85355C2 9.70711 2 9.4714 2 9Z" fill="currentColor"/>
      <path fill-rule="evenodd" clip-rule="evenodd" d="M2 18C2 19.8856 2 20.8284 2.58579 21.4142C3.17157 22 4.11438 22 6 22H18C19.8856 22 20.8284 22 21.4142 21.4142C22 20.8284 22 19.8856 22 18V13C22 12.5286 22 12.2929 21.8536 12.1464C21.7071 12 21.4714 12 21 12H3C2.5286 12 2.29289 12 2.14645 12.1464C2 12.2929 2 12.5286 2 13V18ZM7 15C7 14.5286 7 14.2929 7.14645 14.1464C7.29289 14 7.52859 14 8 14H10C10.4714 14 10.7071 14 10.8536 14.1464C11 14.2929 11 14.5286 11 15C11 15.4714 11 15.7071 10.8536 15.8536C10.7071 16 10.4714 16 10 16H8C7.52859 16 7.29289 16 7.14645 15.8536C7 15.7071 7 15.4714 7 15ZM7.14645 18.1464C7 18.2929 7 18.5286 7 19C7 19.4714 7 19.7071 7.14645 19.8536C7.29289 20 7.52859 20 8 20H10C10.4714 20 10.7071 20 10.8536 19.8536C11 19.7071 11 19.4714 11 19C11 18.5286 11 18.2929 10.8536 18.1464C10.7071 18 10.4714 18 10 18H8C7.52859 18 7.29289 18 7.14645 18.1464ZM13 15C13 14.5286 13 14.2929 13.1464 14.1464C13.2929 14 13.5286 14 14 14H16C16.4714 14 16.7071 14 16.8536 14.1464C17 14.2929 17 14.5286 17 15C17 15.4714 17 15.7071 16.8536 15.8536C16.7071 16 16.4714 16 16 16H14C13.5286 16 13.2929 16 13.1464 15.8536C13 15.7071 13 15.4714 13 15ZM13.1464 18.1464C13 18.2929 13 18.5286 13 19C13 19.4714 13 19.7071 13.1464 19.8536C13.2929 20 13.5286 20 14 20H16C16.4714 20 16.7071 20 16.8536 19.8536C17 19.7071 17 19.4714 17 19C17 18.5286 17 18.2929 16.8536 18.1464C16.7071 18 16.4714 18 16 18H14C13.5286 18 13.2929 18 13.1464 18.1464Z" fill="currentColor"/>
      <path d="M7 3L7 6" stroke="currentColor" stroke-width="2" stroke-linecap="round"/>
      <path d="M17 3L17 6" stroke="currentColor" stroke-width="2" stroke-linecap="round"/>
    </symbol>

    <symbol id="star" width="100%" height="100%" viewBox="0 0 55.867 55.867">
      <path d="M55.818,21.578c-0.118-0.362-0.431-0.626-0.808-0.681L36.92,18.268L28.83,1.876c-0.168-0.342-0.516-0.558-0.896-0.558 s-0.729,0.216-0.896,0.558l-8.091,16.393l-18.09,2.629c-0.377,0.055-0.689,0.318-0.808,0.681c-0.117,0.361-0.02,0.759,0.253,1.024 l13.091,12.76l-3.091,18.018c-0.064,0.375,0.09,0.754,0.397,0.978c0.309,0.226,0.718,0.255,1.053,0.076l16.182-8.506l16.18,8.506 c0.146,0.077,0.307,0.115,0.466,0.115c0.207,0,0.413-0.064,0.588-0.191c0.308-0.224,0.462-0.603,0.397-0.978l-3.09-18.017 l13.091-12.761C55.838,22.336,55.936,21.939,55.818,21.578z" fill="currentColor"/>
    </symbol>

    <symbol id="arrow-left" width="100%" height="100%" viewBox="0 0 11 18">
      <path d="M3.76777 9L9.88388 2.88388C10.372 2.39573 10.372 1.60427 9.88388 1.11612C9.39573 0.627961 8.60427 0.627961 8.11612 1.11612L1.11612 8.11612C0.62796 8.60427 0.62796 9.39573 1.11612 9.88388L8.11612 16.8839C8.60427 17.372 9.39573 17.372 9.88388 16.8839C10.372 16.3957 10.372 15.6043 9.88388 15.1161L3.76777 9Z" fill="currentColor"/>
    </symbol>

    <symbol id="arrow-right" width="100%" height="100%" viewBox="0 0 11 18">
      <path d="M7.23223 9L1.11612 2.88388C0.627961 2.39573 0.627961 1.60427 1.11612 1.11612C1.60427 0.627961 2.39573 0.627961 2.88388 1.11612L9.88388 8.11612C10.372 8.60427 10.372 9.39573 9.88388 9.88388L2.88388 16.8839C2.39573 17.372 1.60427 17.372 1.11612 16.8839C0.627961 16.3957 0.627961 15.6043 1.11612 15.1161L7.23223 9Z" fill="currentColor"/>
    </symbol>

    <symbol id="arrows" width="100%" height="100%" viewBox="0 0 21 23">
			<path fill-rule="evenodd" clip-rule="evenodd" d="M14.2797 11.0556C14.3582 10.9769 14.4514 10.9145 14.554 10.8719C14.6566 10.8294 14.7667 10.8074 14.8778 10.8074C14.9889 10.8074 15.0989 10.8294 15.2016 10.8719C15.3042 10.9145 15.3974 10.9769 15.4759 11.0556L20.5446 16.1243C20.6232 16.2028 20.6857 16.296 20.7282 16.3986C20.7708 16.5013 20.7928 16.6113 20.7928 16.7224C20.7928 16.8335 20.7708 16.9435 20.7282 17.0462C20.6857 17.1488 20.6232 17.242 20.5446 17.3205L15.4759 22.3892C15.3173 22.5478 15.1021 22.6369 14.8778 22.6369C14.6535 22.6369 14.4383 22.5478 14.2797 22.3892C14.1211 22.2306 14.0319 22.0154 14.0319 21.7911C14.0319 21.5668 14.1211 21.3516 14.2797 21.193L18.7519 16.7224L14.2797 12.2518C14.201 12.1734 14.1386 12.0801 14.096 11.9775C14.0534 11.8749 14.0315 11.7648 14.0315 11.6537C14.0315 11.5426 14.0534 11.4326 14.096 11.3299C14.1386 11.2273 14.201 11.1341 14.2797 11.0556Z" fill="currentColor"/>
			<path fill-rule="evenodd" clip-rule="evenodd" d="M0.516525 16.7225C0.516525 16.4984 0.605528 16.2835 0.763955 16.1251C0.922382 15.9667 1.13726 15.8777 1.36131 15.8777H19.1017C19.3257 15.8777 19.5406 15.9667 19.699 16.1251C19.8575 16.2835 19.9465 16.4984 19.9465 16.7225C19.9465 16.9465 19.8575 17.1614 19.699 17.3198C19.5406 17.4782 19.3257 17.5673 19.1017 17.5673H1.36131C1.13726 17.5673 0.922382 17.4782 0.763955 17.3198C0.605528 17.1614 0.516525 16.9465 0.516525 16.7225ZM7.02809 0.918322C7.10676 0.996794 7.16918 1.09002 7.21177 1.19265C7.25436 1.29528 7.27628 1.40531 7.27628 1.51643C7.27628 1.62754 7.25436 1.73757 7.21177 1.8402C7.16918 1.94284 7.10676 2.03606 7.02809 2.11453L2.55582 6.58511L7.02809 11.0557C7.10664 11.1342 7.16894 11.2275 7.21145 11.3301C7.25396 11.4327 7.27584 11.5427 7.27584 11.6538C7.27584 11.7649 7.25396 11.8749 7.21145 11.9775C7.16894 12.0801 7.10664 12.1734 7.02809 12.2519C6.94955 12.3304 6.8563 12.3927 6.75368 12.4353C6.65106 12.4778 6.54106 12.4996 6.42999 12.4996C6.31891 12.4996 6.20892 12.4778 6.10629 12.4353C6.00367 12.3927 5.91043 12.3304 5.83188 12.2519L0.763201 7.18321C0.684529 7.10474 0.622112 7.01152 0.579524 6.90888C0.536936 6.80625 0.515015 6.69623 0.515015 6.58511C0.515015 6.47399 0.536936 6.36396 0.579524 6.26133C0.622112 6.1587 0.684529 6.06548 0.763201 5.987L5.83188 0.918322C5.91036 0.83965 6.00358 0.777233 6.10621 0.734645C6.20884 0.692057 6.31887 0.670135 6.42999 0.670135C6.5411 0.670135 6.65113 0.692057 6.75376 0.734645C6.8564 0.777233 6.94962 0.83965 7.02809 0.918322Z" fill="currentColor"/>
			<path fill-rule="evenodd" clip-rule="evenodd" d="M1.36133 6.58518C1.36133 6.36113 1.45033 6.14626 1.60876 5.98783C1.76719 5.82941 1.98206 5.7404 2.20611 5.7404H19.9465C20.1705 5.7404 20.3854 5.82941 20.5438 5.98783C20.7023 6.14626 20.7913 6.36113 20.7913 6.58518C20.7913 6.80923 20.7023 7.02411 20.5438 7.18253C20.3854 7.34096 20.1705 7.42996 19.9465 7.42996H2.20611C1.98206 7.42996 1.76719 7.34096 1.60876 7.18253C1.45033 7.02411 1.36133 6.80923 1.36133 6.58518Z" fill="currentColor"/>
		</symbol>

    <symbol id="arrow-bottom" width="100%" height="100%" viewBox="0 0 14 9">
      <path d="M7 9L0.937822 0.75L13.0622 0.750001L7 9Z" fill="currentColor"/>
    </symbol>

    <symbol id="eye-visible" width="100%" height="100%" viewBox="0 0 497.25 497.25">
      <circle cx="248.625" cy="248.625" r="19.125" fill="currentColor"/>
      <path d="M248.625,172.125c-42.075,0-76.5,34.425-76.5,76.5s34.425,76.5,76.5,76.5s76.5-34.425,76.5-76.5 S290.7,172.125,248.625,172.125z M248.625,306c-32.513,0-57.375-24.862-57.375-57.375s24.862-57.375,57.375-57.375S306,216.112,306,248.625S281.138,306,248.625,306z" fill="currentColor"/>
      <path d="M248.625,114.75C76.5,114.75,0,248.625,0,248.625S76.5,382.5,248.625,382.5S497.25,248.625,497.25,248.625 S420.75,114.75,248.625,114.75z M248.625,363.375c-153,0-225.675-114.75-225.675-114.75s72.675-114.75,225.675-114.75 S474.3,248.625,474.3,248.625S401.625,363.375,248.625,363.375z" fill="currentColor"/>
    </symbol>

    <symbol id="eye-hidden" width="100%" height="100%" viewBox="0 0 497.301 497.301">
      <path d="M97.5,342.351C30.6,302.15,0,248.65,0,248.65s76.5-133.9,248.6-133.9c24.9,0,47.8,1.9,68.8,7.6l-15.301,15.3 c-17.199-1.9-34.4-3.8-53.5-3.8c-153,0-225.7,114.8-225.7,114.8s28.7,45.9,88,80.3L97.5,342.351z M172.1,248.65 c0,5.7,0,11.5,1.9,17.2l17.2-17.2c0-15.3,5.7-28.7,17.2-40.2s26.8-17.2,40.2-17.2l17.201-17.2c-5.701-1.9-11.5-1.9-17.201-1.9 C206.5,172.15,172.1,206.55,172.1,248.65z M399.699,154.95l-13.398,13.4c59.299,34.4,88,80.3,88,80.3S401.6,363.45,248.6,363.45 c-19.1,0-36.3-1.899-53.5-3.8l-15.3,15.3c21,5.7,44,7.601,68.9,7.601c172.101,0,248.601-133.9,248.601-133.9 S466.6,195.15,399.699,154.95z M401.4,76.95L76.9,401.45l18.9,18.9l324.6-324.6L401.4,76.95z M288.801,288.851 c-11.5,11.5-24.9,17.2-40.201,17.2l-17.2,17.199c5.7,1.9,11.5,1.9,17.2,1.9c42.099,0,76.5-34.4,76.5-76.5c0-5.7,0-11.5-1.9-17.2 L306,248.65C306,263.95,300.199,277.351,288.801,288.851z" fill="currentColor"/>
    </symbol>

    <symbol id="file" width="100%" height="100%" viewBox="0 0 24 24">
      <path d="M4.32698 3.63803C4 4.27976 4 5.11984 4 6.8V17.2C4 18.8802 4 19.7202 4.32698 20.362C4.6146 20.9265 5.07354 21.3854 5.63803 21.673C6.27976 22 7.11984 22 8.8 22H15.2C16.8802 22 17.7202 22 18.362 21.673C18.9265 21.3854 19.3854 20.9265 19.673 20.362C20 19.7202 20 18.8802 20 17.2V9.8C20 9.51997 20 9.37996 19.9455 9.273C19.8976 9.17892 19.8211 9.10243 19.727 9.0545C19.62 9 19.48 9 19.2 9H17C14.7909 9 13 7.20914 13 5V2.8C13 2.51997 13 2.37996 12.9455 2.273C12.8976 2.17892 12.8211 2.10243 12.727 2.0545C12.62 2 12.48 2 12.2 2H8.8C7.11984 2 6.27976 2 5.63803 2.32698C5.07354 2.6146 4.6146 3.07354 4.32698 3.63803Z" fill="currentColor"/>
      <path d="M15 2.70711C15 2.31658 15.3166 2 15.7071 2C15.8946 2 16.0745 2.0745 16.2071 2.20711L19.7929 5.79289C19.9255 5.9255 20 6.10536 20 6.29289C20 6.68342 19.6834 7 19.2929 7H17C15.8954 7 15 6.10457 15 5V2.70711Z" fill="currentColor"/>
    </symbol>

    <symbol id="user" width="100%" height="100%" viewBox="0 0 14 18">
      <path d="M7.00085 8.07286C9.27946 8.07286 11.1266 6.26568 11.1266 4.03643C11.1266 1.80718 9.27946 0 7.00085 0C4.72225 0 2.875 1.80718 2.875 4.03643C2.875 6.26568 4.72225 8.07286 7.00085 8.07286Z" fill="currentColor"/>
      <path d="M11.7947 18.0003C13.3558 18.0003 14.471 16.364 13.8019 14.9458C12.5753 12.4366 10.0107 10.6912 7.00001 10.6912C3.98931 10.6912 1.31316 12.4366 0.198085 14.9458C-0.470959 16.364 0.644033 18.0003 2.20514 18.0003H11.7947Z" fill="currentColor"/>
    </symbol>

    <symbol id="ok" width="100%" height="100%" viewBox="0 0 24 24">
      <path d="M12.0108 9.94543C13.1567 9.94126 14.0693 9.02079 14.0651 7.87247C14.0609 6.72366 13.1464 5.80958 12 5.80859C10.8441 5.80737 9.92091 6.73839 9.92975 7.89751C9.93834 9.04166 10.8613 9.94961 12.0108 9.94543Z" fill="currentColor"/>
      <path d="M12 0C5.37256 0 0 5.37281 0 12C0 18.6272 5.37256 24 12 24C18.6274 24 24 18.6272 24 12C24 5.37281 18.6274 0 12 0ZM12.0172 3.64923C14.3546 3.65561 16.2306 5.56751 16.2186 7.93068C16.2068 10.2393 14.3001 12.1105 11.9666 12.1026C9.65696 12.0948 7.76274 10.1799 7.77649 7.8666C7.7895 5.52798 9.68471 3.64284 12.0172 3.64923ZM16.7514 13.7634C16.2346 14.2939 15.6124 14.6779 14.9215 14.9458C14.2684 15.1989 13.5527 15.3264 12.8441 15.4113C12.9514 15.5277 13.0017 15.5849 13.0685 15.6517C14.03 16.6183 14.9961 17.58 15.9544 18.5494C16.281 18.8798 16.349 19.2894 16.1692 19.6731C15.9731 20.093 15.5328 20.3689 15.101 20.3392C14.8275 20.3203 14.6141 20.1846 14.4248 19.9938C13.699 19.2636 12.9595 18.5464 12.249 17.8025C12.0415 17.5859 11.9423 17.6272 11.7594 17.8152C11.0294 18.567 10.2875 19.3068 9.54132 20.0426C9.20618 20.3731 8.80745 20.433 8.41854 20.244C8.00532 20.0441 7.74261 19.6221 7.76274 19.1975C7.77698 18.9113 7.91791 18.6918 8.11482 18.4958C9.06672 17.5459 10.0157 16.593 10.9649 15.6409C11.028 15.5778 11.0864 15.5108 11.178 15.4125C9.88334 15.2773 8.71587 14.9586 7.71634 14.1771C7.5921 14.0798 7.46418 13.986 7.35124 13.877C6.91347 13.4569 6.86952 12.9755 7.21547 12.48C7.51182 12.0557 8.00876 11.9423 8.52559 12.1861C8.62576 12.233 8.72102 12.2924 8.81236 12.3553C10.6749 13.6352 13.2338 13.6703 15.1037 12.4125C15.2888 12.2711 15.4869 12.1547 15.7165 12.096C16.1624 11.9811 16.5788 12.1454 16.8179 12.5357C17.0917 12.9819 17.0885 13.4169 16.7514 13.7634Z" fill="currentColor"/>
    </symbol>

    <symbol id="yt" width="100%" height="100%" viewBox="0 0 24 24">
      <path d="M10.5049 14.2483L14.4083 12.0001L10.5049 9.75195V14.2483Z" fill="currentColor"/>
      <path d="M12 0C5.3736 0 0 5.3736 0 12C0 18.6264 5.3736 24 12 24C18.6264 24 24 18.6264 24 12C24 5.3736 18.6264 0 12 0ZM19.4982 12.0123C19.4982 12.0123 19.4982 14.4459 19.1895 15.6194C19.0164 16.2618 18.5099 16.7682 17.8676 16.9411C16.6941 17.25 12 17.25 12 17.25C12 17.25 7.31818 17.25 6.13239 16.9288C5.49005 16.756 4.98358 16.2493 4.81055 15.607C4.50165 14.4459 4.50165 12 4.50165 12C4.50165 12 4.50165 9.56653 4.81055 8.39301C4.9834 7.75067 5.50232 7.23175 6.13239 7.0589C7.30591 6.75 12 6.75 12 6.75C12 6.75 16.6941 6.75 17.8676 7.07117C18.5099 7.24402 19.0164 7.75067 19.1895 8.39301C19.5106 9.56653 19.4982 12.0123 19.4982 12.0123Z" fill="currentColor"/>
    </symbol>

    <symbol id="inst" width="100%" height="100%" viewBox="0 0 24 24">
      <path d="M14.2969 12C14.2969 13.2686 13.2686 14.2969 12 14.2969C10.7314 14.2969 9.70312 13.2686 9.70312 12C9.70312 10.7314 10.7314 9.70312 12 9.70312C13.2686 9.70312 14.2969 10.7314 14.2969 12Z" fill="currentColor"/>
      <path d="M17.3713 7.93622C17.2609 7.63702 17.0848 7.36621 16.8559 7.14392C16.6336 6.91504 16.363 6.73889 16.0636 6.62848C15.8208 6.53418 15.4561 6.42194 14.7842 6.39136C14.0575 6.35822 13.8396 6.35107 11.9998 6.35107C10.1597 6.35107 9.94183 6.35803 9.21527 6.39117C8.54346 6.42194 8.17853 6.53418 7.93591 6.62848C7.63654 6.73889 7.36572 6.91504 7.14362 7.14392C6.91473 7.36621 6.73859 7.63684 6.62799 7.93622C6.53369 8.17902 6.42145 8.54395 6.39087 9.21576C6.35773 9.94232 6.35059 10.1602 6.35059 12.0002C6.35059 13.8401 6.35773 14.058 6.39087 14.7847C6.42145 15.4565 6.53369 15.8213 6.62799 16.0641C6.73859 16.3635 6.91455 16.6341 7.14343 16.8564C7.36572 17.0853 7.63635 17.2614 7.93573 17.3718C8.17853 17.4663 8.54346 17.5786 9.21527 17.6091C9.94183 17.6423 10.1595 17.6492 11.9996 17.6492C13.8398 17.6492 14.0577 17.6423 14.7841 17.6091C15.4559 17.5786 15.8208 17.4663 16.0636 17.3718C16.6646 17.14 17.1395 16.665 17.3713 16.0641C17.4656 15.8213 17.5779 15.4565 17.6086 14.7847C17.6418 14.058 17.6487 13.8401 17.6487 12.0002C17.6487 10.1602 17.6418 9.94232 17.6086 9.21576C17.5781 8.54395 17.4658 8.17902 17.3713 7.93622ZM11.9998 15.5384C10.0455 15.5384 8.46124 13.9543 8.46124 12.0001C8.46124 10.0458 10.0455 8.46173 11.9998 8.46173C13.9539 8.46173 15.5381 10.0458 15.5381 12.0001C15.5381 13.9543 13.9539 15.5384 11.9998 15.5384ZM15.678 9.14874C15.2213 9.14874 14.8511 8.7785 14.8511 8.32184C14.8511 7.86517 15.2213 7.49493 15.678 7.49493C16.1346 7.49493 16.5049 7.86517 16.5049 8.32184C16.5047 8.7785 16.1346 9.14874 15.678 9.14874Z" fill="currentColor"/>
      <path d="M12 0C5.3736 0 0 5.3736 0 12C0 18.6264 5.3736 24 12 24C18.6264 24 24 18.6264 24 12C24 5.3736 18.6264 0 12 0ZM18.8491 14.8409C18.8157 15.5744 18.6991 16.0752 18.5288 16.5135C18.1708 17.4391 17.4391 18.1708 16.5135 18.5288C16.0754 18.6991 15.5744 18.8156 14.8411 18.8491C14.1063 18.8826 13.8715 18.8906 12.0002 18.8906C10.1287 18.8906 9.8941 18.8826 9.15912 18.8491C8.42578 18.8156 7.9248 18.6991 7.48663 18.5288C7.02667 18.3558 6.61029 18.0846 6.26605 17.7339C5.91559 17.3899 5.64441 16.9733 5.47137 16.5135C5.30109 16.0754 5.18445 15.5744 5.15112 14.8411C5.11725 14.1061 5.10938 13.8713 5.10938 12C5.10938 10.1287 5.11725 9.89392 5.15094 9.15912C5.18427 8.4256 5.30072 7.9248 5.47101 7.48645C5.64404 7.02667 5.91541 6.61011 6.26605 6.26605C6.61011 5.91541 7.02667 5.64423 7.48645 5.47119C7.9248 5.3009 8.4256 5.18445 9.15912 5.15094C9.89392 5.11743 10.1287 5.10938 12 5.10938C13.8713 5.10938 14.1061 5.11743 14.8409 5.15112C15.5744 5.18445 16.0752 5.3009 16.5135 5.47101C16.9733 5.64404 17.3899 5.91541 17.7341 6.26605C18.0846 6.61029 18.356 7.02667 18.5288 7.48645C18.6993 7.9248 18.8157 8.4256 18.8492 9.15912C18.8828 9.89392 18.8906 10.1287 18.8906 12C18.8906 13.8713 18.8828 14.1061 18.8491 14.8409Z" fill="currentColor"/>
    </symbol>

    <symbol id="fb" width="100%" height="100%" viewBox="0 0 24 24">
      <path d="M24 12C24 5.37188 18.6281 0 12 0C5.37188 0 0 5.37188 0 12C0 18.6281 5.37188 24 12 24C12.0703 24 12.1406 24 12.2109 23.9953V14.6578H9.63281V11.6531H12.2109V9.44062C12.2109 6.87656 13.7766 5.47969 16.0641 5.47969C17.1609 5.47969 18.1031 5.55938 18.375 5.59688V8.27813H16.8C15.5578 8.27813 15.3141 8.86875 15.3141 9.73594V11.6484H18.2906L17.9016 14.6531H15.3141V23.5359C20.3297 22.0969 24 17.4797 24 12Z" fill="currentColor"/>
    </symbol>

    <symbol id="tw" width="100%" height="100%" viewBox="0 0 24 24">
      <path d="M12 0C5.3736 0 0 5.3736 0 12C0 18.6264 5.3736 24 12 24C18.6264 24 24 18.6264 24 12C24 5.3736 18.6264 0 12 0ZM17.4791 9.35632C17.4844 9.47443 17.4869 9.59308 17.4869 9.71228C17.4869 13.3519 14.7166 17.5488 9.65021 17.549H9.65039H9.65021C8.09473 17.549 6.64728 17.0931 5.42834 16.3118C5.64386 16.3372 5.86322 16.3499 6.08533 16.3499C7.37585 16.3499 8.56348 15.9097 9.50629 15.1708C8.30054 15.1485 7.28394 14.3522 6.93311 13.2578C7.10101 13.29 7.27368 13.3076 7.45074 13.3076C7.70215 13.3076 7.94568 13.2737 8.17712 13.2105C6.91681 12.9582 5.96741 11.8444 5.96741 10.5106C5.96741 10.4982 5.96741 10.487 5.96777 10.4755C6.33893 10.6818 6.76337 10.806 7.21527 10.8199C6.47571 10.3264 5.98956 9.48285 5.98956 8.52722C5.98956 8.02258 6.12598 7.5498 6.36255 7.14276C7.72083 8.80939 9.75073 9.90546 12.0399 10.0206C11.9927 9.81885 11.9683 9.60864 11.9683 9.39258C11.9683 7.87207 13.2019 6.63849 14.723 6.63849C15.5153 6.63849 16.2308 6.97339 16.7335 7.50879C17.361 7.38501 17.9502 7.15576 18.4825 6.84027C18.2765 7.48315 17.84 8.02258 17.2712 8.36371C17.8284 8.29706 18.3594 8.14929 18.8529 7.92993C18.4843 8.48236 18.0168 8.96759 17.4791 9.35632Z" fill="currentColor"/>
    </symbol>

    <symbol id="vk" width="100%" height="100%" viewBox="0 0 24 24">
      <path d="M12 0C5.37281 0 0 5.37256 0 12C0 18.6274 5.37281 24 12 24C18.6272 24 24 18.6274 24 12C24 5.37256 18.6272 0 12 0ZM18.087 13.2978C18.6463 13.8441 19.2381 14.3583 19.7402 14.961C19.9626 15.2277 20.1723 15.5034 20.3319 15.8135C20.5597 16.2557 20.354 16.7406 19.9582 16.7669L17.4997 16.7664C16.8648 16.8189 16.3595 16.5628 15.9335 16.1287C15.5935 15.7828 15.278 15.4133 14.9505 15.0556C14.8167 14.9087 14.6757 14.7705 14.5078 14.6617C14.1726 14.4437 13.8815 14.5105 13.6895 14.8606C13.4938 15.2169 13.4491 15.6117 13.4304 16.0082C13.4037 16.5879 13.2288 16.7394 12.6472 16.7666C11.4044 16.8248 10.2251 16.6362 9.12908 16.0097C8.16221 15.457 7.41385 14.677 6.76174 13.7938C5.49189 12.0722 4.51937 10.1826 3.64554 8.23881C3.44888 7.80104 3.59276 7.56681 4.0757 7.55773C4.87808 7.54226 5.68045 7.54423 6.48282 7.55699C6.80937 7.56215 7.02543 7.74899 7.1509 8.05713C7.58449 9.12393 8.11605 10.1389 8.78216 11.0803C8.95967 11.3309 9.14087 11.5809 9.39892 11.7579C9.68372 11.9534 9.90077 11.8888 10.0351 11.5708C10.121 11.3688 10.1581 11.1527 10.1767 10.9361C10.2406 10.1944 10.2482 9.45293 10.1377 8.71415C10.069 8.25183 9.80894 7.95327 9.34809 7.86586C9.11337 7.82142 9.14774 7.73451 9.26191 7.60045C9.46005 7.36868 9.64567 7.22529 10.0167 7.22529L12.7943 7.2248C13.232 7.31073 13.3303 7.50715 13.3897 7.94811L13.3921 11.0348C13.387 11.2055 13.4778 11.7113 13.7842 11.823C14.0297 11.904 14.1918 11.7071 14.3386 11.5517C15.0047 10.8448 15.4793 10.0105 15.9043 9.14701C16.0919 8.7662 16.2537 8.37213 16.4108 7.97733C16.5277 7.6854 16.7094 7.54177 17.0389 7.54668L19.7136 7.54987C19.7924 7.54987 19.8725 7.55061 19.9506 7.56411C20.4014 7.64121 20.5248 7.83517 20.3854 8.27491C20.1659 8.96581 19.7394 9.54132 19.3225 10.1183C18.8757 10.736 18.3991 11.3322 17.9567 11.9526C17.5501 12.5198 17.5822 12.8053 18.087 13.2978Z" fill="currentColor"/>
    </symbol>

    <symbol id="play" width="100%" height="100%" viewBox="0 0 24 24">
      <path fill-rule="evenodd" clip-rule="evenodd" d="M12 24C18.6274 24 24 18.6274 24 12C24 5.37258 18.6274 0 12 0C5.37258 0 0 5.37258 0 12C0 18.6274 5.37258 24 12 24ZM11.3321 7.75193C10.8718 7.44507 10.2799 7.41646 9.79221 7.67749C9.30448 7.93852 9 8.44681 9 9V15C9 15.5532 9.30448 16.0615 9.79221 16.3225C10.2799 16.5835 10.8718 16.5549 11.3321 16.2481L15.8321 13.2481C16.2493 12.9699 16.5 12.5015 16.5 12C16.5 11.4985 16.2493 11.0301 15.8321 10.7519L11.3321 7.75193Z" fill="currentColor"/>
    </symbol>

    <symbol id="pause" width="100%" height="100%" viewBox="0 0 24 24">
      <path fill-rule="evenodd" clip-rule="evenodd" d="M24 12C24 18.6274 18.6274 24 12 24C5.37258 24 0 18.6274 0 12C0 5.37258 5.37258 0 12 0C18.6274 0 24 5.37258 24 12ZM7.5 9C7.5 8.17157 8.17157 7.5 9 7.5C9.82843 7.5 10.5 8.17157 10.5 9V15C10.5 15.8284 9.82843 16.5 9 16.5C8.17157 16.5 7.5 15.8284 7.5 15V9ZM15 7.5C14.1716 7.5 13.5 8.17157 13.5 9V15C13.5 15.8284 14.1716 16.5 15 16.5C15.8284 16.5 16.5 15.8284 16.5 15V9C16.5 8.17157 15.8284 7.5 15 7.5Z" fill="currentColor"/>
    </symbol>

    <symbol id="arrow-prev" width="100%" height="100%" viewBox="0 0 15 10">
      <path d="M13.4453 0.167951C13.7522 -0.0366195 14.1467 -0.0556921 14.4719 0.118327C14.797 0.292346 15 0.631206 15 1V9C15 9.3688 14.797 9.70766 14.4719 9.88168C14.1467 10.0557 13.7522 10.0366 13.4453 9.83205L8 6.20185V9C8 9.3688 7.79702 9.70766 7.47186 9.88168C7.1467 10.0557 6.75216 10.0366 6.4453 9.83205L0.445299 5.83205C0.167101 5.64659 0 5.33435 0 5C0 4.66565 0.167101 4.35342 0.445299 4.16795L6.4453 0.167951C6.75216 -0.0366195 7.1467 -0.0556921 7.47186 0.118327C7.79702 0.292346 8 0.631206 8 1V3.79815L13.4453 0.167951Z" fill="currentColor"/>
    </symbol>

    <symbol id="arrow-next" width="100%" height="100%" viewBox="0 0 15 10">
      <path d="M1.5547 0.167951C1.24784 -0.0366195 0.8533 -0.0556921 0.528142 0.118327C0.202985 0.292346 0 0.631206 0 1V9C0 9.3688 0.202985 9.70766 0.528142 9.88168C0.8533 10.0557 1.24784 10.0366 1.5547 9.83205L7 6.20185V9C7 9.3688 7.20298 9.70766 7.52814 9.88168C7.8533 10.0557 8.24784 10.0366 8.5547 9.83205L14.5547 5.83205C14.8329 5.64659 15 5.33435 15 5C15 4.66565 14.8329 4.35342 14.5547 4.16795L8.5547 0.167951C8.24784 -0.0366195 7.8533 -0.0556921 7.52814 0.118327C7.20298 0.292346 7 0.631206 7 1V3.79815L1.5547 0.167951Z" fill="currentColor"/>
    </symbol>

    <symbol id="volume-on" width="100%" height="100%" viewBox="0 0 24 24">
      <path d="M18.28,8.37a1,1,0,1,0-1.56,1.26,4,4,0,0,1,0,4.74A1,1,0,0,0,17.5,16a1,1,0,0,0,.78-.37A6,6,0,0,0,18.28,8.37Z" fill="currentColor"/>
      <path d="M19.64,5.23a1,1,0,1,0-1.28,1.54A6.8,6.8,0,0,1,21,12a6.8,6.8,0,0,1-2.64,5.23,1,1,0,0,0-.13,1.41A1,1,0,0,0,19,19a1,1,0,0,0,.64-.23A8.75,8.75,0,0,0,23,12,8.75,8.75,0,0,0,19.64,5.23Z" fill="currentColor"/>
      <path d="M14.47,3.12a1,1,0,0,0-1,0L7,7.57H2a1,1,0,0,0-1,1v6.86a1,1,0,0,0,1,1H7l6.41,4.4A1.06,1.06,0,0,0,14,21a1,1,0,0,0,1-1V4A1,1,0,0,0,14.47,3.12Z" fill="currentColor"/>
    </symbol>

    <symbol id="volume-off" width="100%" height="100%" viewBox="0 0 24 24">
      <path d="M16.91,14.08l1.44,1.44a6,6,0,0,0-.07-7.15,1,1,0,1,0-1.56,1.26A4,4,0,0,1,16.91,14.08Z" fill="currentColor"/>
      <path d="M21,12a6.51,6.51,0,0,1-1.78,4.39l1.42,1.42A8.53,8.53,0,0,0,23,12a8.75,8.75,0,0,0-3.36-6.77,1,1,0,1,0-1.28,1.54A6.8,6.8,0,0,1,21,12Z" fill="currentColor"/>
      <path d="M15,12.17V4a1,1,0,0,0-1.57-.83L9,6.2Z" fill="currentColor"/>
      <path d="M4.74,7.57H2a1,1,0,0,0-1,1v6.86a1,1,0,0,0,1,1H7l6.41,4.4A1.06,1.06,0,0,0,14,21a1,1,0,0,0,1-1V17.83Z" fill="currentColor"/>
      <path d="M4.71,3.29A1,1,0,0,0,3.29,4.71l16,16a1,1,0,0,0,1.42,0,1,1,0,0,0,0-1.42Z" fill="currentColor"/>
    </symbol>

    <symbol id="loading" width="100%" height="100%" viewBox="0 0 24 24">
      <path d="M12.5621 5.61427C14.1125 5.61427 15.3694 4.35747 15.3694 2.80713C15.3694 1.2568 14.1125 0 12.5621 0C11.0117 0 9.75488 1.2568 9.75488 2.80713C9.75488 4.35747 11.0117 5.61427 12.5621 5.61427Z" fill="currentColor"/>
      <path d="M12.5621 24C13.4922 24 14.2463 23.246 14.2463 22.3159C14.2463 21.3858 13.4922 20.6318 12.5621 20.6318C11.632 20.6318 10.8779 21.3858 10.8779 22.3159C10.8779 23.246 11.632 24 12.5621 24Z" fill="currentColor"/>
      <path d="M5.66439 8.19005C7.05985 8.19005 8.19109 7.05885 8.19109 5.66344C8.19109 4.26804 7.05985 3.13684 5.66439 3.13684C4.26894 3.13684 3.1377 4.26804 3.1377 5.66344C3.1377 7.05885 4.26894 8.19005 5.66439 8.19005Z" fill="currentColor"/>
      <path d="M19.4603 20.8613C20.2355 20.8613 20.8639 20.2329 20.8639 19.4578C20.8639 18.6826 20.2355 18.0542 19.4603 18.0542C18.6851 18.0542 18.0566 18.6826 18.0566 19.4578C18.0566 20.2329 18.6851 20.8613 19.4603 20.8613Z" fill="currentColor"/>
      <path d="M2.80677 14.8072C4.04679 14.8072 5.05202 13.802 5.05202 12.562C5.05202 11.322 4.04679 10.3168 2.80677 10.3168C1.56675 10.3168 0.561523 11.322 0.561523 12.562C0.561523 13.802 1.56675 14.8072 2.80677 14.8072Z" fill="currentColor"/>
      <path d="M22.3165 13.6832C22.9363 13.6832 23.4387 13.1808 23.4387 12.5611C23.4387 11.9414 22.9363 11.439 22.3165 11.439C21.6967 11.439 21.1943 11.9414 21.1943 12.5611C21.1943 13.1808 21.6967 13.6832 22.3165 13.6832Z" fill="currentColor"/>
      <path d="M4.2751 18.0706C3.50726 18.8384 3.50726 20.0808 4.2751 20.8486C5.04204 21.6164 6.28626 21.6164 7.0532 20.8486C7.82105 20.0808 7.82105 18.8384 7.0532 18.0706C6.28626 17.3019 5.04295 17.2946 4.2751 18.0706Z" fill="currentColor"/>
      <path d="M19.4588 6.50503C19.9236 6.50503 20.3004 6.12823 20.3004 5.66343C20.3004 5.19863 19.9236 4.82184 19.4588 4.82184C18.994 4.82184 18.6172 5.19863 18.6172 5.66343C18.6172 6.12823 18.994 6.50503 19.4588 6.50503Z" fill="currentColor"/>
    </symbol>

  </defs>
</svg>