<?xml version="1.0" standalone="no"?>
<!DOCTYPE svg PUBLIC "-//W3C//DTD SVG 20010904//EN"
 "http://www.w3.org/TR/2001/REC-SVG-20010904/DTD/svg10.dtd">
<svg version="1.0" xmlns="http://www.w3.org/2000/svg"
 width="260.000000pt" height="260.000000pt" viewBox="0 0 260.000000 260.000000"
 preserveAspectRatio="xMidYMid meet">
<metadata>
Created by potrace 1.14, written by Peter Selinger 2001-2017
</metadata>
<g transform="translate(0.000000,260.000000) scale(0.100000,-0.100000)"
fill="#000000" stroke="none">
<path d="M1870 2190 c-29 -27 -55 -50 -57 -50 -2 0 -35 -32 -73 -70 -39 -39
-70 -68 -70 -65 0 2 -35 -31 -78 -73 -44 -42 -116 -111 -162 -152 -45 -41
-112 -104 -148 -139 l-65 -63 -73 77 c-41 42 -74 79 -74 81 0 3 -19 24 -42 48
-68 68 -158 169 -158 175 0 3 -14 15 -30 26 -16 11 -30 23 -30 27 0 4 -19 28
-41 52 -49 53 -52 52 -135 -30 -30 -30 -57 -54 -60 -54 -7 0 -104 -102 -104
-110 0 -4 16 -22 35 -41 19 -19 35 -40 35 -48 0 -8 3 -12 6 -9 6 7 47 -33 70
-67 15 -23 14 -26 -9 -47 -14 -13 -55 -50 -90 -82 l-65 -60 25 -30 c14 -17 46
-53 72 -81 81 -87 80 -78 21 -132 -29 -26 -71 -64 -93 -84 l-41 -37 35 -37
c19 -21 49 -53 67 -72 17 -19 32 -36 32 -37 0 -1 32 -35 70 -75 39 -39 70 -74
70 -76 0 -2 24 -28 53 -57 28 -30 93 -98 142 -153 121 -131 149 -162 201 -216
24 -25 44 -50 44 -55 0 -6 7 -11 15 -11 8 0 15 5 15 10 0 6 2 8 5 5 3 -3 32
20 64 51 31 31 113 108 181 171 68 63 140 131 160 150 20 19 85 80 145 135 59
55 127 118 150 140 23 22 92 86 153 143 71 66 110 110 109 122 -1 11 -3 17 -5
15 -2 -2 -16 10 -30 25 -125 133 -123 130 -110 148 7 10 38 40 68 67 30 28 65
61 77 75 26 28 30 22 -72 128 -33 34 -62 67 -64 73 -2 6 34 46 79 90 l82 80
-23 26 c-13 15 -37 41 -54 58 -16 18 -57 62 -90 98 -33 37 -65 67 -71 67 -6 0
-35 -22 -64 -50z m148 -210 c-7 -11 -19 -20 -26 -20 -7 0 -11 -4 -8 -9 3 -5
-5 -16 -19 -25 -14 -9 -64 -54 -112 -100 -102 -97 -152 -144 -258 -241 -41
-38 -103 -96 -136 -127 -34 -32 -64 -58 -69 -58 -4 0 -31 24 -59 52 l-53 53
70 65 c38 36 115 108 172 160 57 52 120 111 140 130 61 58 213 197 244 223
l28 25 49 -54 c43 -48 48 -57 37 -74z m-1276 -32 c11 -13 62 -68 113 -123 51
-55 106 -113 121 -130 31 -35 230 -248 292 -313 23 -24 42 -49 42 -54 0 -9
-21 -32 -76 -81 l-32 -29 -65 69 c-35 37 -84 90 -108 117 -24 26 -64 70 -89
95 -25 26 -81 87 -125 135 -44 49 -105 115 -136 147 -31 33 -55 59 -52 59 2 0
-2 7 -11 15 -14 14 -10 21 39 65 31 28 58 50 61 50 4 0 15 -10 26 -22z m1244
-245 c24 -27 44 -51 44 -54 0 -8 -82 -89 -91 -89 -4 0 -11 -9 -14 -21 -4 -11
-9 -18 -13 -15 -3 3 -23 -12 -44 -34 -22 -22 -41 -40 -42 -40 -1 0 -32 -29
-69 -65 -37 -36 -72 -65 -77 -65 -6 0 -8 -4 -5 -10 3 -5 2 -10 -3 -10 -6 0
-32 -21 -60 -47 -92 -89 -188 -178 -205 -192 -15 -12 -23 -9 -65 31 -56 53
-61 70 -27 96 14 11 25 25 25 31 0 6 5 11 11 11 7 0 26 16 44 34 18 19 35 32
39 29 3 -4 6 1 6 10 0 10 4 17 8 17 4 0 35 26 68 58 34 31 107 100 163 152 57
52 133 123 170 157 36 35 72 63 80 63 7 0 33 -21 57 -47z m-1227 -152 c51 -54
157 -167 307 -330 33 -34 79 -84 104 -111 139 -146 141 -151 99 -181 -11 -7
-34 -27 -51 -43 l-31 -29 -63 69 c-35 38 -64 72 -64 77 0 4 -7 7 -15 7 -8 0
-15 4 -15 9 0 5 -20 30 -43 55 -24 25 -42 48 -39 51 3 3 -3 5 -13 5 -10 0 -16
2 -13 5 3 3 -30 42 -73 87 -44 44 -79 83 -79 85 0 2 -21 26 -47 52 -122 123
-136 141 -121 158 17 21 92 92 97 93 2 0 29 -26 60 -59z m1171 -165 c0 -8 12
-25 28 -38 15 -13 36 -34 46 -46 18 -20 18 -24 4 -35 -17 -13 -159 -144 -263
-242 -137 -131 -198 -185 -207 -185 -5 0 -6 -4 -3 -10 3 -5 2 -10 -3 -10 -5 0
-39 -29 -77 -65 -37 -36 -73 -65 -80 -65 -6 0 -33 23 -59 50 -54 57 -54 54 18
119 22 20 64 60 94 89 29 28 55 52 57 52 1 0 27 24 57 53 30 28 111 104 178
167 68 63 134 125 146 138 13 12 28 22 34 22 5 0 10 5 10 10 0 6 5 10 10 10 6
0 10 -6 10 -14z m-1185 -191 c31 -30 54 -55 51 -55 -2 0 24 -29 57 -64 64 -67
208 -223 262 -283 17 -19 58 -63 93 -99 34 -36 62 -69 62 -74 0 -6 4 -10 10
-10 5 0 7 -7 4 -15 -4 -8 -9 -15 -13 -15 -4 0 -27 -18 -51 -40 -24 -22 -46
-40 -49 -40 -3 0 -17 16 -31 35 -14 19 -31 35 -37 35 -7 0 -13 4 -13 10 0 5
-21 32 -47 59 -27 27 -82 86 -123 132 -41 45 -103 111 -136 146 -34 34 -60 63
-59 63 2 0 -24 28 -57 62 -33 33 -67 72 -75 85 -15 23 -14 25 38 73 30 28 55
50 57 50 1 0 27 -25 57 -55z"/>
</g>
</svg>
